name D:\school\WTK\thesis\model\3dpredictsim\Results\MidTarsalJoint\Fal_s1_bCst_PF_Natali2010_ls150_MT_k150_d020_MTP_T5_ig24.mot
datacolumns 128
datarows 4
range 1.71328945 1.74755524
endheader
time	pelvis_tilt	pelvis_list	pelvis_rotation	pelvis_tx	pelvis_ty	pelvis_tz	hip_flexion_l	hip_adduction_l	hip_rotation_l	hip_flexion_r	hip_adduction_r	hip_rotation_r	knee_angle_l	knee_angle_r	ankle_angle_l	ankle_angle_r	subtalar_angle_l	subtalar_angle_r	mtj_angle_l	mtj_angle_r	mtp_angle_l	mtp_angle_r	lumbar_extension	lumbar_bending	lumbar_rotation	arm_flex_l	arm_add_l	arm_rot_l	arm_flex_r	arm_add_r	arm_rot_r	elbow_flex_l	elbow_flex_r	pro_sup_l	pro_sup_r	glut_med1_l/activation	glut_med2_l/activation	glut_med3_l/activation	glut_min1_l/activation	glut_min2_l/activation	glut_min3_l/activation	semimem_l/activation	semiten_l/activation	bifemlh_l/activation	bifemsh_l/activation	sar_l/activation	add_long_l/activation	add_brev_l/activation	add_mag1_l/activation	add_mag2_l/activation	add_mag3_l/activation	tfl_l/activation	pect_l/activation	grac_l/activation	glut_max1_l/activation	glut_max2_l/activation	glut_max3_l/activation	iliacus_l/activation	psoas_l/activation	quad_fem_l/activation	gem_l/activation	peri_l/activation	rect_fem_l/activation	vas_med_l/activation	vas_int_l/activation	vas_lat_l/activation	med_gas_l/activation	lat_gas_l/activation	soleus_l/activation	tib_post_l/activation	flex_dig_l/activation	flex_hal_l/activation	tib_ant_l/activation	per_brev_l/activation	per_long_l/activation	per_tert_l/activation	ext_dig_l/activation	ext_hal_l/activation	ercspn_l/activation	intobl_l/activation	extobl_l/activation	glut_med1_r/activation	glut_med2_r/activation	glut_med3_r/activation	glut_min1_r/activation	glut_min2_r/activation	glut_min3_r/activation	semimem_r/activation	semiten_r/activation	bifemlh_r/activation	bifemsh_r/activation	sar_r/activation	add_long_r/activation	add_brev_r/activation	add_mag1_r/activation	add_mag2_r/activation	add_mag3_r/activation	tfl_r/activation	pect_r/activation	grac_r/activation	glut_max1_r/activation	glut_max2_r/activation	glut_max3_r/activation	iliacus_r/activation	psoas_r/activation	quad_fem_r/activation	gem_r/activation	peri_r/activation	rect_fem_r/activation	vas_med_r/activation	vas_int_r/activation	vas_lat_r/activation	med_gas_r/activation	lat_gas_r/activation	soleus_r/activation	tib_post_r/activation	flex_dig_r/activation	flex_hal_r/activation	tib_ant_r/activation	per_brev_r/activation	per_long_r/activation	per_tert_r/activation	ext_dig_r/activation	ext_hal_r/activation	ercspn_r/activation	intobl_r/activation	extobl_r/activation	
          1.71328945	         -2.92999663	          2.32125888	         -5.62360869	          2.14161181	          0.91820241	          0.00171209	         29.43436038	          3.50913548	         -2.23119626	        -16.48734033	         -1.36875713	          6.33321700	        -10.88612959	         -8.60491989	          5.27859153	         -3.51682212	         -5.27043371	          8.80485426	         -0.05557946	          8.89557685	         -0.82541686	          4.32392813	         -1.90027865	         -0.38077039	          2.11727622	         -4.93667064	        -13.47009059	          6.97223989	          5.26224490	        -13.45259403	         16.78187106	         16.21632925	         33.81872028	         86.51662706	         86.51662706	          0.05951783	          0.05951787	          0.05000084	          0.05951832	          0.05951822	          0.05029464	          0.15509098	          0.06457379	          0.22186991	          0.05003800	          0.05000154	          0.14034900	          0.27418639	          0.12029909	          0.15444003	          0.10737444	          0.05000050	          0.07482464	          0.12257048	          0.05000369	          0.07641416	          0.15490503	          0.05000384	          0.05000063	          0.15774136	          0.26732719	          0.13221271	          0.05000090	          0.11297484	          0.11125014	          0.10029026	          0.05641095	          0.05453867	          0.05683238	          0.05000012	          0.05000165	          0.05000093	          0.50120713	          0.25184357	          0.16918877	          0.21580856	          0.44730015	          0.19771638	          0.05777354	          0.11924047	          0.10530737	          0.24078186	          0.10584401	          0.08434652	          0.27039935	          0.20010209	          0.11949612	          0.05000364	          0.05000096	          0.05000069	          0.05502361	          0.11944965	          0.05006401	          0.05000467	          0.05000258	          0.05000509	          0.05000181	          0.31094234	          0.07080113	          0.05001260	          0.05001581	          0.05000701	          0.05000432	          0.44982333	          0.64679257	          0.05000191	          0.05000277	          0.05235877	          0.27169182	          0.05000202	          0.05000189	          0.05000175	          0.30662263	          0.42226766	          0.36771536	          0.27228776	          0.25529783	          0.33786412	          0.05000016	          0.05950598	          0.12958925	          0.05000098	          0.05000025	          0.05000088	          0.05000009	          0.05000024	          0.05000071	
          1.72471138	         -2.92948053	          2.40655201	         -5.92175375	          2.15871443	          0.91711699	          0.00152147	         28.80785843	          3.84921164	         -1.99844292	        -16.47602104	         -1.67935314	          6.14345847	        -11.12224019	        -10.32163864	          4.57555676	         -3.94599056	         -5.62591591	          9.71178582	         -0.01388362	          7.94650167	         -0.83215358	          5.92783598	         -1.70310095	         -0.56682777	          2.18442093	         -5.81811008	        -13.46730969	          6.80956980	          5.01118952	        -13.45865159	         17.09805995	         15.79751665	         34.99573380	         86.51662706	         86.51662706	          0.05000005	          0.05000016	          0.09494573	          0.05000017	          0.05000019	          0.05000027	          0.13028875	          0.05424724	          0.18638815	          0.05000037	          0.05053549	          0.11790604	          0.26164125	          0.29627579	          0.19587487	          0.11067760	          0.05000166	          0.07082366	          0.12313360	          0.05002506	          0.09096867	          0.13013325	          0.05000050	          0.07084630	          0.45048615	          0.22457586	          0.11106916	          0.05963711	          0.12932790	          0.12938807	          0.11164075	          0.05000381	          0.05977646	          0.05000022	          0.05952279	          0.05008308	          0.05952087	          0.43516660	          0.25400436	          0.20327898	          0.18129643	          0.40369738	          0.16609744	          0.05000003	          0.10017134	          0.08846644	          0.20227577	          0.08891737	          0.07085797	          0.22715712	          0.16810168	          0.10038634	          0.05000903	          0.05000182	          0.05000200	          0.05000086	          0.10034839	          0.11603448	          0.05067706	          0.05952121	          0.05949996	          0.05951597	          0.26121651	          0.05953915	          0.05939251	          0.05001246	          0.05000772	          0.05001175	          0.37788768	          0.61588750	          0.05003444	          0.05954016	          0.06858265	          0.22824319	          0.09327856	          0.14285171	          0.13638822	          0.25758704	          0.35473820	          0.33823337	          0.24722084	          0.21447412	          0.28391425	          0.05000032	          0.05000038	          0.14436444	          0.05000064	          0.05000024	          0.05000116	          0.05232852	          0.06185063	          0.05951840	
          1.73613331	         -2.92511396	          2.49409524	         -6.18732673	          2.17613732	          0.91613316	          0.00134874	         28.07283214	          4.10665706	         -1.74131591	        -16.40793783	         -1.99017364	          5.94882590	        -11.67001342	        -12.11798321	          3.98922703	         -4.48703552	         -5.99981379	         10.57338263	         -0.24148731	          6.75227690	         -0.85358200	          7.76136403	         -1.48367915	         -0.76479058	          2.23952222	         -6.73154062	        -13.46981320	          6.69709167	          4.67745090	        -13.46002879	         17.33461649	         15.43844436	         36.15009797	         86.51662706	         86.51662706	          0.22286861	          0.21665939	          0.25809542	          0.31172795	          0.21074918	          0.18907379	          0.11219510	          0.06444507	          0.15658084	          0.07920711	          0.05000255	          0.09905046	          0.21979934	          0.24889512	          0.16455071	          0.11229426	          0.05000141	          0.05951762	          0.10344561	          0.05000252	          0.11077815	          0.10932288	          0.05609644	          0.05951669	          0.37844373	          0.18866164	          0.19867991	          0.05009989	          0.10864573	          0.10869630	          0.09378713	          0.05000232	          0.05021731	          0.05000240	          0.05000393	          0.05000128	          0.05000309	          0.51423658	          0.31373696	          0.17077203	          0.30553318	          0.48247010	          0.13953674	          0.05518394	          0.12958826	          0.07431875	          0.30087296	          0.07469774	          0.05952678	          0.30328141	          0.14121924	          0.08433272	          0.05000523	          0.05000070	          0.05000062	          0.05000071	          0.08430808	          0.09747822	          0.05000154	          0.05000327	          0.05000323	          0.05000241	          0.28193250	          0.05002042	          0.05000235	          0.05003264	          0.05001605	          0.05000578	          0.31990163	          0.59205507	          0.05000168	          0.05002036	          0.05761560	          0.19174232	          0.10680884	          0.12000916	          0.11457852	          0.21639326	          0.29800790	          0.28414256	          0.20768615	          0.18017597	          0.23851126	          0.05000007	          0.09571860	          0.16315605	          0.05000045	          0.05000011	          0.05000044	          0.05000009	          0.05195938	          0.05000026	
          1.74755524	         -2.91926430	          2.57360937	         -6.41362131	          2.19367957	          0.91530512	          0.00115252	         27.29242344	          4.34079155	         -1.48658905	        -16.24654088	         -2.28926880	          5.76641125	        -12.18135783	        -14.03012635	          3.40260018	         -5.14890574	         -6.37432131	         11.39232271	         -0.26703587	          5.33450197	         -0.79599189	          9.76554754	         -1.26431639	         -0.96393791	          2.28669803	         -7.63117670	        -13.47078270	          6.62908407	          4.29305242	        -13.46551022	         17.51697707	         15.12144965	         37.26202365	         86.51662706	         86.51662706	          0.31442220	          0.30839324	          0.33061246	          0.26187641	          0.17705048	          0.17834384	          0.09425303	          0.07053128	          0.13154030	          0.06654088	          0.05000266	          0.08321025	          0.18464878	          0.20909194	          0.13823723	          0.14584853	          0.05000125	          0.05000333	          0.08690362	          0.19443431	          0.17089944	          0.14091282	          0.05000021	          0.05000026	          0.31792252	          0.15849077	          0.16690746	          0.05000023	          0.10174173	          0.12379825	          0.08295166	          0.05000009	          0.05000017	          0.05000003	          0.05000006	          0.05000035	          0.05000033	          0.57294851	          0.30010332	          0.17183438	          0.53680341	          0.51934137	          0.25151966	          0.07740644	          0.10886432	          0.06243358	          0.27644763	          0.06275206	          0.05000755	          0.25479610	          0.11863554	          0.07084630	          0.05000609	          0.05000065	          0.05000059	          0.05000070	          0.07083229	          0.08251789	          0.05000124	          0.05000157	          0.05000362	          0.05000159	          0.23684730	          0.05001934	          0.05000389	          0.05001502	          0.05000676	          0.05000339	          0.26874284	          0.55826230	          0.05000141	          0.05000508	          0.05000097	          0.16107861	          0.08978457	          0.12663675	          0.13735974	          0.18178725	          0.25034997	          0.23870196	          0.17447276	          0.15136229	          0.20036843	          0.05000035	          0.09700031	          0.16903288	          0.05000061	          0.08074465	          0.05000096	          0.06835876	          0.05000004	          0.05000012	
